PathFileType	4	(X/Y/Z)	../Python\walking\Walking12\task.trc
DataRate	CameraRate	NumFrames	NumMarkers	Units	OrigDataRate	OrigDataStartFrame	OrigNumFrames
200.000000	200.000000	6	30	mm	200.000000	53	426
Frame#	Time	CLAV			STRN			RASI			LASI			RTH1			RTH2			RTH3			RTB1			RTB2			RTB3			RD5M			RTOE			LTH1			LTH3			LTB1			LTB2			LTB3			LTOE			LD5M			LTH2			RHEE			T10			PE03			RPSI			PE02			LPSI			PE01			C7			RBAK			LHEE			
		X1	Y1	Z1	X2	Y2	Z2	X3	Y3	Z3	X4	Y4	Z4	X5	Y5	Z5	X6	Y6	Z6	X7	Y7	Z7	X8	Y8	Z8	X9	Y9	Z9	X10	Y10	Z10	X11	Y11	Z11	X12	Y12	Z12	X13	Y13	Z13	X14	Y14	Z14	X15	Y15	Z15	X16	Y16	Z16	X17	Y17	Z17	X18	Y18	Z18	X19	Y19	Z19	X20	Y20	Z20	X21	Y21	Z21	X22	Y22	Z22	X23	Y23	Z23	X24	Y24	Z24	X25	Y25	Z25	X26	Y26	Z26	X27	Y27	Z27	X28	Y28	Z28	X29	Y29	Z29	X30	Y30	Z30	

54	0.265	637.4506835937502	1423.270263671875	102.1740264892579	695.300476074219	1231.861450195313	106.8032302856446	684.3262939453127	1048.163818359375	251.8408813476564	667.706726074219	995.834106445313	-17.40587234497071	677.3303833007815	785.7839355468755	303.4686889648439	624.1232910156252	754.5913696289065	305.2700805664064	647.4182739257815	713.5586547851565	287.7049255371095	690.853454589844	370.973114013672	234.4248046875001	654.4080200195315	321.549041748047	234.7436828613282	693.0642700195315	293.0754394531251	220.8271331787111	795.550903320313	15.67311763763428	201.0929107666017	850.390991210938	34.08633422851564	156.0764770507813	582.786071777344	684.6304321289065	-28.50808334350587	607.8405761718752	609.7128906250002	-26.43941116333009	485.8843994140627	404.5976257324221	-26.44187736511232	437.9576721191409	403.4594726562502	-12.53902339935303	439.2180786132815	341.1945190429689	-17.58686447143555	262.0563354492189	75.96631622314456	43.38382720947267	231.7888793945314	101.3064727783204	2.593672037124635	564.5503540039065	646.5434570312502	-1.896599054336549	636.3916625976565	24.99549674987794	123.1189117431641	470.702575683594	1255.950561523438	100.1895217895508	500.2274475097659	1048.6845703125	108.7472839355469	513.687927246094	1073.21044921875	179.2409667968751	507.035583496094	1057.609130859375	158.8167877197266	504.1174621582034	1057.387817382813	81.2070007324219	516.0181274414065	1112.01806640625	121.3306884765626	525.7355957031252	1517.171997070313	91.98954010009768	504.1028747558596	1428.068603515625	262.5215759277345	201.1812591552736	266.9359130859376	46.79210662841798	
55	0.27	643.767272949219	1424.023559570313	102.1989898681641	701.3959960937502	1232.509521484375	106.7704086303712	690.220642089844	1048.43896484375	252.1806182861329	673.5632934570315	996.8432006835942	-17.33022117614747	681.3452148437502	785.8422241210942	303.5654602050782	627.872253417969	755.0249023437502	305.4299926757814	650.8467407226565	713.825622558594	287.8570861816407	692.1726684570315	371.0651855468751	234.5102539062501	655.523376464844	321.827117919922	234.8657073974611	694.0438232421877	293.1629333496095	220.9121551513673	795.533813476563	15.60625267028809	201.1424255371095	850.3796997070317	34.04158782958986	156.0211791992188	591.935241699219	685.1011962890627	-27.9596347808838	618.3083496093752	610.6226806640627	-26.12936019897462	499.9211120605471	406.2732238769534	-25.98972320556642	451.9741516113284	405.204772949219	-12.09675979614259	453.0532836914065	342.9583740234376	-17.43429756164551	278.2128295898439	77.59475708007815	40.41061401367189	247.483856201172	103.505973815918	0.3389916718006135	574.7192993164065	646.795837402344	-1.060513019561768	636.2964477539065	24.99270248413087	123.1988143920899	476.8621520996096	1256.879638671875	100.7085342407227	506.1984863281252	1049.57373046875	109.226173400879	519.6828613281252	1074.078979492188	179.7245178222657	512.979187011719	1058.476196289063	159.2783966064454	510.1354675292971	1058.273315429688	81.71138000488284	522.0476684570315	1112.887573242188	121.8289947509766	532.1533203125002	1518.064697265625	92.18637847900393	510.7263793945315	1429.005126953125	262.865203857422	214.2309570312501	267.7955932617189	47.80012512207033	
56	0.275	650.055358886719	1424.757934570313	102.2281875610352	707.4578857421877	1233.141845703125	106.7692565917969	696.038757324219	1048.671508789063	252.5731048583986	679.4417114257815	997.8792114257817	-17.20782279968262	685.347595214844	785.881713867188	303.6243896484376	631.6270141601565	755.4107055664065	305.5555725097657	654.3248291015627	714.0706787109377	287.9627075195314	693.5425415039065	371.1665344238282	234.5248107910157	656.6910400390627	322.1153869628907	234.924285888672	695.0735473632815	293.260223388672	220.9303131103517	795.5158081054692	15.54668045043946	201.1936035156251	850.3809204101567	33.99461364746095	155.9713897705079	601.0473632812502	685.6409912109377	-27.4362087249756	628.729675292969	611.615417480469	-25.80788803100587	513.8872680664065	408.0128479003909	-25.42914962768556	465.9319763183596	406.9260559082034	-11.52556419372559	466.9045715332034	344.716766357422	-17.26350402832032	294.7394409179689	79.04919433593753	37.51515960693361	263.5500488281251	105.450798034668	-1.860475420951844	584.814880371094	647.1251220703127	-0.2869558632373811	636.2077636718752	24.99865341186525	123.2500457763672	482.9879150390627	1257.796508789063	101.2477264404297	512.142517089844	1050.463134765625	109.6762008666993	525.629821777344	1074.919555664063	180.1922607421876	518.8804321289065	1059.322143554688	159.7178955078126	516.1331176757815	1059.171630859375	82.18898010253909	528.0422973632815	1113.751708984375	122.3281021118165	538.5482177734377	1518.941284179688	92.37665557861331	517.3201904296877	1429.942138671875	263.2138977050782	227.4437408447267	268.2930297851564	48.79645919799808	
57	0.28	656.316345214844	1425.472900390625	102.2636871337891	713.4886474609377	1233.75927734375	106.803337097168	701.7808227539065	1048.867309570313	253.0203399658204	685.3471679687502	998.9385375976567	-17.03147888183594	689.3502197265627	785.9031372070317	303.647186279297	635.3991699218752	755.751403808594	305.6480407714845	657.862243652344	714.2935791015627	288.0229492187501	694.965026855469	371.2732849121095	234.475311279297	657.9083251953127	322.4113769531251	234.9185638427736	696.1516723632815	293.3628234863282	220.8875732421876	795.4970092773442	15.49346637725831	201.2464752197267	850.397338867188	33.94343185424806	155.9294891357422	610.135437011719	686.243835449219	-26.933406829834	639.1145019531252	612.6860351562502	-25.47303771972658	527.778259277344	409.7918395996096	-24.7767677307129	479.8255920410159	408.6006164550784	-10.844877243042	480.7683715820315	346.4456787109376	-17.07921218872071	311.6014709472657	80.32784271240237	34.73551177978517	279.9573364257814	107.1324768066407	-3.980356693267824	594.8436279296877	647.5213012695315	0.4226877093315127	636.127868652344	25.01478958129884	123.2708129882813	489.0823974609377	1258.699584960938	101.8039855957032	518.0614013671877	1051.350952148438	110.0901718139649	531.5294189453127	1075.730346679688	180.6369628906251	524.7412109375002	1060.145141601563	160.1285400390626	522.1123046875002	1060.080688476563	82.63240814208987	534.0037841796877	1114.6083984375	122.8209228515626	544.9211425781252	1519.800415039063	92.5607604980469	523.8839111328127	1430.878051757813	263.5670471191407	240.8159637451173	268.425506591797	49.75249481201175	
58	0.285	662.5515136718752	1426.168212890625	102.3074111938477	719.4904785156252	1234.362548828125	106.8757858276368	707.4473266601565	1049.03173828125	253.5234985351564	691.2832641601565	1000.017272949219	-16.79531478881837	693.3635864257815	785.9064941406255	303.6366271972657	639.1973266601565	756.0495605468752	305.7080993652345	661.4644165039065	714.493835449219	288.0398864746095	696.4414672851565	371.3812561035157	234.3694152832032	659.1721801757815	322.7123413085939	234.8490600585939	697.2758789062502	293.4661560058595	220.7908020019532	795.4775390625005	15.44559478759766	201.3009643554689	850.4313964843755	33.88617324829103	155.8973083496094	619.211364746094	686.9055175781252	-26.448299407959	649.4709472656252	613.8310546875002	-25.12488365173341	541.5902099609377	411.5855712890627	-24.05017662048341	493.6502990722659	410.2069396972659	-10.07541561126709	494.6416931152346	348.1221008300782	-16.88448333740235	328.7693786621095	81.42903900146487	32.10620498657228	296.678680419922	108.5433731079102	-5.99807643890381	604.8123168945315	647.976745605469	1.067459464073182	636.0592041015627	25.04250144958498	123.2601547241212	495.1479797363284	1259.588012695313	102.3741073608399	523.956726074219	1052.234619140625	110.461784362793	537.3826293945315	1076.509399414063	181.0521087646485	530.5632934570315	1060.943359375	160.5042724609376	528.0747070312502	1060.997436523438	83.03520965576175	539.9342041015627	1115.455444335938	123.3009490966797	551.2733154296877	1520.640502929688	92.73906707763675	530.417175292969	1431.8115234375	263.9239807128907	254.3439331054689	268.1914062500001	50.64436721801761	
59	0.29	668.7623291015627	1426.843017578125	102.3611526489258	725.465515136719	1234.951782226563	106.9892959594727	713.0394287109377	1049.169555664063	254.0827941894532	697.2526855468752	1001.111328125	-16.49489402770997	697.3955688476565	785.8910522460942	303.596649169922	643.0268554687502	756.3079833984377	305.7361450195314	665.132751464844	714.6702880859377	288.0163574218751	697.9727172851565	371.4861755371095	234.2151031494142	660.479675292969	323.0154113769532	234.7174682617189	698.4439086914065	293.5658264160157	220.6470794677736	795.4577636718755	15.40207195281983	201.3569488525392	850.4849243164067	33.82124328613283	155.8761291503907	628.285827636719	687.6232910156252	-25.97974205017091	659.8056640625002	615.048034667969	-24.76538085937501	555.3199462890627	413.3701782226565	-23.26726341247559	507.4024963378909	411.7252197265627	-9.23819732666016	508.5218505859377	349.7243957519532	-16.68086624145509	346.2186889648439	82.35091400146487	29.65744781494142	313.6902160644532	109.6766662597657	-7.893229484558109	614.7280273437502	648.4859008789065	1.646676063537599	636.0039062500002	25.08301544189455	123.2178802490235	501.1869201660159	1260.460571289063	102.9548416137696	529.8298950195315	1053.111572265625	110.7857055664063	543.190368652344	1077.254760742188	181.4319458007813	536.3486328125002	1061.714599609375	160.8398895263672	534.0215454101565	1061.9189453125	83.39194488525393	545.8352661132815	1116.289916992188	123.7623672485352	557.605895996094	1521.46044921875	92.91193389892581	536.9197998046877	1432.740844726563	264.283905029297	268.024383544922	267.5901794433595	51.45319366455081	
